<svg xmlns="http://www.w3.org/2000/svg" viewBox="0 0 140.99 140.99"><defs><style>.cls-1,.cls-2,.cls-3{fill:none;stroke:#fff;}.cls-1{stroke-width:8px;}.cls-2{stroke-width:7px;}.cls-3{stroke-width:4px;}</style></defs><title>industriesAsset 2</title><g id="Layer_2" data-name="Layer 2"><g id="ÉåÉCÉÑÅ__1" data-name="ÉåÉCÉÑÅ[_1"><path class="cls-1" d="M4.26,76.29a66.49,66.49,0,1,0,60.44-72A66.56,66.56,0,0,0,4.26,76.29Zm.41,0a66.08,66.08,0,1,1,71.58,60.07A66.15,66.15,0,0,1,4.67,76.25Z"/><line class="cls-2" x1="23.51" y1="62.34" x2="23.73" y2="62.7"/><line class="cls-2" x1="32.62" y1="88.65" x2="32.79" y2="89.03"/><line class="cls-2" x1="75.96" y1="134.57" x2="76.13" y2="134.95"/><line class="cls-2" x1="66.85" y1="108.26" x2="67.06" y2="108.62"/><path class="cls-3" d="M116.7,77.48a14.45,14.45,0,0,0-12.22-26.2"/><path class="cls-3" d="M116.7,77.48,62.88,110a14.47,14.47,0,0,0-5.29,19.75c4,6.9,13.77,8.16,18.66,6.57"/><path class="cls-3" d="M24.29,63.51a14.45,14.45,0,0,0,12.22,26.2l68-38.43"/><path class="cls-3" d="M24.29,63.51,78.11,31A14.46,14.46,0,0,0,83.4,11.25c-4-6.91-13.77-8.17-18.66-6.58"/></g></g></svg>