<svg xmlns="http://www.w3.org/2000/svg" viewBox="0 0 519 162.76"><defs><style>.cls-1{fill:#0099a6;}</style></defs><title>Asset 1</title><g id="Layer_2" data-name="Layer 2"><g id="ÉåÉCÉÑÅ__1" data-name="ÉåÉCÉÑÅ[_1"><path class="cls-1" d="M0,129.87s134.44,18.91,220.42,0c61.05-13.44,91.89-23.83,151.42-27.33,11.88-.7,49.53-.77,49.53-.77S504,109.6,519,129.87v32.89H0Z"/><path class="cls-1" d="M415.88,13.14l1.05-10.31L426.08,0l-2.64,15.72,5,11,8.16,45.14S425.93,83.6,425.93,98.59c0,5-1.12,15.31-5,15.31-10.8,0-15.73-.31-15.73-.31l.43-16.8s6.8-2.93,6.8-13.59c0-14-10-24.8-10-37.67,0-5.4-.74-16.51,10-29"/></g></g></svg>